<?xml version="1.0" encoding="UTF-8" standalone="no"?>
<!-- Created with Inkscape (http://www.inkscape.org/) -->

<svg
   version="1.1"
   id="svg2"
   width="1061.6533"
   height="318.49332"
   viewBox="0 0 1061.6533 318.49332"
   sodipodi:docname="1_Colour_Pos_Landscape.eps"
   xmlns:inkscape="http://www.inkscape.org/namespaces/inkscape"
   xmlns:sodipodi="http://sodipodi.sourceforge.net/DTD/sodipodi-0.dtd"
   xmlns="http://www.w3.org/2000/svg"
   xmlns:svg="http://www.w3.org/2000/svg">
  <defs
     id="defs6" />
  <sodipodi:namedview
     id="namedview4"
     pagecolor="#ffffff"
     bordercolor="#000000"
     borderopacity="0.25"
     inkscape:showpageshadow="2"
     inkscape:pageopacity="0.0"
     inkscape:pagecheckerboard="0"
     inkscape:deskcolor="#d1d1d1" />
  <g
     id="g8"
     inkscape:groupmode="layer"
     inkscape:label="ink_ext_XXXXXX"
     transform="matrix(1.3333333,0,0,-1.3333333,0,318.49333)">
    <g
       id="g10"
       transform="scale(0.1)">
      <path
         d="m 3140.8,866.879 c 51.88,0 89.74,31.551 89.74,88.34 0,64.511 -37.86,85.541 -89.74,85.541 H 3006.88 V 866.879 Z M 3239.66,612.371 3140.8,804.48 H 3006.88 V 612.371 h -63.8 v 490.799 h 63.8 123.4 c 102.37,0 166.87,-51.89 166.87,-145.842 0,-63.808 -34.35,-115.687 -92.54,-139.527 l 104.47,-205.43 h -69.42"
         style="fill:#231f20;fill-opacity:1;fill-rule:nonzero;stroke:none"
         id="path12" />
      <path
         d="M 3826.47,1103.17 V 612.371 h -24.54 l -325.33,359.68 v -359.68 h -63.8 v 490.799 h 25.23 l 323.94,-357.592 v 357.592 h 64.5"
         style="fill:#231f20;fill-opacity:1;fill-rule:nonzero;stroke:none"
         id="path14" />
      <path
         d="m 4209.25,783.449 -77.13,189.301 h -5.6 l -77.13,-189.301 z m 25.25,-61.699 h -210.34 l -44.88,-109.379 h -66.61 l 200.53,490.799 h 31.55 l 201.22,-490.799 h -67.3 L 4234.5,721.75"
         style="fill:#231f20;fill-opacity:1;fill-rule:nonzero;stroke:none"
         id="path16" />
      <path
         d="m 4637.58,1103.17 h 63.81 V 612.371 h -63.81 v 490.799"
         style="fill:#231f20;fill-opacity:1;fill-rule:nonzero;stroke:none"
         id="path18" />
      <path
         d="M 5132.57,833.93 V 612.371 h -63.79 V 832.52 c 0,42.781 -16.14,74.32 -70.82,74.32 -55.4,0 -100.27,-28.039 -100.27,-83.43 V 612.371 h -64.5 v 350.57 h 57.49 l 4.21,-43.472 c 24.54,28.742 60.29,46.972 111.48,46.972 91.15,0 126.2,-68.011 126.2,-132.511"
         style="fill:#231f20;fill-opacity:1;fill-rule:nonzero;stroke:none"
         id="path20" />
      <path
         d="m 5215.27,678.969 46.27,44.883 c 14.73,-19.633 37.17,-46.282 86.94,-52.59 51.89,-6.313 83.44,15.429 81.34,51.886 -1.41,21.032 -28.05,34.352 -63.11,41.364 -91.84,19.629 -136.02,36.457 -139.53,98.867 -2.8,52.582 42.78,107.973 144.45,103.062 57.49,-2.8 94.65,-26.64 119.19,-54.679 l -43.47,-42.071 c -18.94,21.028 -42.77,34.348 -74.33,37.86 -55.39,5.609 -83.43,-20.34 -80.62,-43.469 3.5,-28.051 46.27,-31.562 101.66,-46.281 54.69,-14.02 100.97,-37.16 100.97,-93.25 0,-74.321 -64.51,-119.903 -144.44,-115.692 -76.42,4.211 -116.4,46.981 -135.32,70.11"
         style="fill:#231f20;fill-opacity:1;fill-rule:nonzero;stroke:none"
         id="path22" />
      <path
         d="m 5759.31,671.961 v -59.59 h -63.1 c -50.48,0 -100.27,31.551 -100.27,115.68 v 174.59 h -60.29 v 53.988 c 48.38,0 64.5,23.84 64.5,62.401 v 45.57 h 59.6 V 959.43 h 78.53 v -56.09 h -78.53 V 728.051 c 0,-37.86 14.03,-56.09 45.58,-56.09 h 53.98"
         style="fill:#231f20;fill-opacity:1;fill-rule:nonzero;stroke:none"
         id="path24" />
      <path
         d="m 5851.15,1063.2 c 0,21.73 17.53,39.97 39.97,39.97 22.43,0 39.96,-18.24 39.96,-39.97 0,-22.44 -17.53,-41.37 -39.96,-41.37 -22.44,0 -39.97,18.93 -39.97,41.37 z m 71.51,-450.829 h -63.8 v 289.57 h -41.36 v 61 h 105.16 v -350.57"
         style="fill:#231f20;fill-opacity:1;fill-rule:nonzero;stroke:none"
         id="path26" />
      <path
         d="m 6219.93,671.961 v -59.59 h -63.11 c -50.48,0 -100.25,31.551 -100.25,115.68 v 174.59 h -60.3 v 53.988 c 48.37,0 64.5,23.84 64.5,62.401 v 45.57 h 59.6 V 959.43 h 78.52 v -56.09 h -78.52 V 728.051 c 0,-37.86 14.02,-56.09 45.57,-56.09 h 53.99"
         style="fill:#231f20;fill-opacity:1;fill-rule:nonzero;stroke:none"
         id="path28" />
      <path
         d="m 6597.11,962.941 v -350.57 h -56.78 l -4.21,46.969 v 7.711 c -20.33,-31.539 -53.99,-58.192 -111.49,-58.192 -89.04,0 -125.49,68.012 -125.49,132.512 v 221.57 h 63.09 v -215.25 c 0,-49.793 21.74,-79.242 70.12,-79.242 60.3,0 100.97,53.301 100.97,108.692 v 185.8 h 63.79"
         style="fill:#231f20;fill-opacity:1;fill-rule:nonzero;stroke:none"
         id="path30" />
      <path
         d="m 6885.96,671.961 v -59.59 h -63.1 c -50.48,0 -100.26,31.551 -100.26,115.68 v 174.59 h -60.3 v 53.988 c 48.38,0 64.5,23.84 64.5,62.401 v 45.57 h 59.6 V 959.43 h 78.53 V 903.34 H 6786.4 V 728.051 c 0,-37.86 14.03,-56.09 45.58,-56.09 h 53.98"
         style="fill:#231f20;fill-opacity:1;fill-rule:nonzero;stroke:none"
         id="path32" />
      <path
         d="m 7209.18,822.711 c -1.41,57.488 -46.28,84.84 -100.97,84.84 -46.97,0 -94.65,-28.75 -104.46,-84.84 z m -275.55,-39.262 c -1.41,114.281 73.62,182.992 173.88,182.992 114.28,0 178.09,-86.941 166.87,-196.32 h -272.04 c 7.71,-69.41 55.39,-98.859 112.88,-99.562 53.99,-0.7 88.35,25.941 107.98,51.191 l 45.58,-39.969 c -25.95,-33.66 -77.84,-73.621 -154.96,-72.922 -104.47,0.7 -178.79,71.52 -180.19,174.59"
         style="fill:#231f20;fill-opacity:1;fill-rule:nonzero;stroke:none"
         id="path34" />
      <path
         d="m 2935.42,1535.29 v 261.66 h 84.8 v -253.84 c 0,-65.56 46.32,-90.82 91.43,-90.82 44.51,0 86.62,25.26 86.62,90.82 v 253.84 h 84.21 v -261.66 c 0,-105.26 -78.8,-162.4 -169.62,-162.4 -104.07,0 -177.44,57.14 -177.44,162.4"
         style="fill:#231f20;fill-opacity:1;fill-rule:nonzero;stroke:none"
         id="path36" />
      <path
         d="M 3758.91,1796.95 V 1375.89 H 3715 l -254.44,258.05 v -258.05 h -84.81 v 421.06 h 45.12 l 253.23,-256.24 v 256.24 h 84.81"
         style="fill:#231f20;fill-opacity:1;fill-rule:nonzero;stroke:none"
         id="path38" />
      <path
         d="m 3876.85,1496.8 c 19.25,-14.44 59.55,-40.3 117.89,-44.51 50.53,-3.61 89.63,9.62 89.63,49.92 0,75.79 -247.22,28.27 -247.22,179.25 0,87.21 92.63,121.5 171.43,118.49 73.98,-3 127.52,-35.49 152.18,-60.75 l -50.53,-60.15 c -12.63,13.24 -49.92,45.12 -107.06,46.32 -48.73,2.4 -79.4,-16.84 -79.4,-43.91 0,-77 244.81,-24.06 243,-180.45 -0.6,-57.75 -47.52,-128.12 -158.19,-128.12 -64.96,0 -132.33,19.84 -177.44,61.35 l 45.71,62.56"
         style="fill:#231f20;fill-opacity:1;fill-rule:nonzero;stroke:none"
         id="path40" />
      <path
         d="m 4808.61,1796.95 -129.92,-421.06 h -81.21 l -92.02,290.53 -102.26,-290.53 h -80.61 l -125.71,421.06 h 87.82 l 78.79,-288.73 104.06,288.73 h 79.41 l 92.02,-288.13 82.41,288.13 h 87.22"
         style="fill:#231f20;fill-opacity:1;fill-rule:nonzero;stroke:none"
         id="path42" />
      <path
         d="M 1996.54,844.328 1729.42,656.859"
         style="fill:#100f0d;fill-opacity:1;fill-rule:nonzero;stroke:none"
         id="path44" />
      <path
         d="M 1999.14,827.43 1738.36,644.129 c -2.72,-1.91 -5.84,-2.82 -8.92,-2.82 -4.9,0 -9.72,2.3 -12.74,6.621 -4.94,7.031 -3.24,16.73 3.79,21.66 l 273.6,192.211"
         style="fill:#8059b2;fill-opacity:1;fill-rule:nonzero;stroke:none"
         id="path46" />
      <path
         d="M 1948.68,981.691 1744.47,838.371"
         style="fill:#100f0d;fill-opacity:1;fill-rule:nonzero;stroke:none"
         id="path48" />
      <path
         d="M 1956.45,968.371 1753.4,825.648 c -2.72,-1.91 -5.83,-2.828 -8.92,-2.828 -4.89,0 -9.71,2.309 -12.74,6.621 -4.94,7.028 -3.24,16.731 3.8,21.661 l 205.32,144.257"
         style="fill:#2c7783;fill-opacity:1;fill-rule:nonzero;stroke:none"
         id="path50" />
      <path
         d="m 1883.32,1061.66 c -0.74,-0.79 -1.43,-1.48 -2.35,-2.12 l -94.99,-66.661 c -2.72,-1.91 -5.83,-2.828 -8.92,-2.828 -4.89,0 -9.71,2.308 -12.74,6.621 -4.94,7.028 -3.24,16.728 3.8,21.658 l 88.9,62.4"
         style="fill:#485ab2;fill-opacity:1;fill-rule:nonzero;stroke:none"
         id="path52" />
      <path
         d="m 1206.34,1264.11 265,185.74 c 7.03,4.95 16.73,3.24 21.66,-3.8 4.94,-7.02 3.24,-16.72 -3.8,-21.66 l -257.29,-180.54"
         style="fill:#8059b2;fill-opacity:1;fill-rule:nonzero;stroke:none"
         id="path54" />
      <path
         d="m 1130.21,1383.86 201.01,141.08 c 7.03,4.94 16.73,3.24 21.67,-3.8 4.93,-7.03 3.23,-16.73 -3.8,-21.66 l -206.98,-145.24"
         style="fill:#2c7783;fill-opacity:1;fill-rule:nonzero;stroke:none"
         id="path56" />
      <path
         d="m 1105.96,1527.01 96.99,68.07 c 7.03,4.94 16.73,3.24 21.67,-3.79 4.93,-7.03 3.23,-16.73 -3.8,-21.66 l -110.48,-77.54 c -0.94,-0.66 -1.92,-1.2 -2.94,-1.63"
         style="fill:#485ab2;fill-opacity:1;fill-rule:nonzero;stroke:none"
         id="path58" />
      <path
         d="m 2024.46,785.801 c -2.13,-45.223 -13.65,-90 -33.58,-130.43 -9.88,-20.262 -21.96,-39.351 -35.5,-57.199 -13.74,-17.703 -28.86,-34.25 -45.29,-49.281 -32.78,-30.2 -70.05,-54.782 -109.09,-75.141 -2.17,-1.129 -4.85,-0.289 -5.98,1.879 -1.11,2.109 -0.34,4.703 1.7,5.891 37.53,21.851 72.56,47.832 103.11,78.082 30.41,30.32 55.86,65.429 73.29,104.148 17.56,38.648 26.63,80.73 27.68,122.93 0.31,13.582 -0.3,27.16 -1.6,40.679 L 1738.62,644.48 c -2.72,-1.91 -5.83,-2.832 -8.92,-2.832 -4.9,0 -9.71,2.313 -12.74,6.622 -4.94,7.031 -3.24,16.73 3.79,21.66 l 273.35,191.851 0.01,-0.019 v 0.008 c 0.01,0 0.02,0 0.03,0.011 -3.26,16.758 -7.57,33.328 -13.05,49.5 -6.72,19.61 -14.89,38.789 -24.5,57.129 L 1753.66,825.988 c -2.71,-1.906 -5.83,-2.828 -8.92,-2.828 -4.89,0 -9.71,2.309 -12.74,6.629 -4.93,7.02 -3.23,16.723 3.8,21.66 l 204.95,143.84 0.01,-0.019 c 0.05,0.039 0.09,0.07 0.14,0.101 -5.91,9.269 -12.2,18.259 -18.97,26.849 -11.43,14.57 -24.45,27.72 -38.61,39.43 -0.73,-0.79 -1.55,-1.51 -2.46,-2.15 l -94.99,-66.668 c -2.71,-1.91 -5.83,-2.82 -8.92,-2.82 -4.89,0 -9.71,2.308 -12.74,6.617 -4.93,7.031 -3.23,16.731 3.8,21.661 l 88.89,62.39 c 0.03,0.03 0.07,0.06 0.1,0.09 -10.1,6.46 -20.59,12.27 -31.49,17.24 -37.53,17.19 -79.11,25.29 -121.43,28.93 -42.39,3.76 -85.72,3.58 -129.48,3.53 -43.75,-0.05 -88.15,-0.04 -132.78,4.45 -44.55,4.3 -89.52,12.89 -132.33,28.93 -42.76,16.17 -82.69,39.79 -117.4,69.51 -35.72,30.7 -61.01,70.58 -78.7,112.38 -17.59,42.02 -27.61,86.65 -30.93,131.54 -3.24,44.89 -0.2,90.18 9.77,133.92 9.98,43.68 26.42,85.99 49.85,124.06 23.23,38.17 53.34,71.94 88.2,99.25 1.93,1.51 4.72,1.17 6.23,-0.76 1.45,-1.86 1.18,-4.52 -0.55,-6.06 -32.36,-28.71 -59.4,-62.93 -79.98,-100.49 -20.49,-37.63 -34.82,-78.42 -42.52,-120.39 -4.86,-26.1 -7.34,-52.68 -7.44,-79.22 0.19,0.04 0.38,0 0.57,0.02 l 96.63,67.82 c 7.02,4.93 16.72,3.23 21.66,-3.8 4.93,-7.03 3.23,-16.73 -3.8,-21.66 l -110.48,-77.54 c -0.93,-0.66 -1.92,-1.2 -2.93,-1.62 v 0.04 c -0.09,-0.06 -0.15,-0.14 -0.25,-0.18 2.94,-36.57 10.57,-72.61 22.76,-106.86 0.04,0.01 0.09,0.01 0.13,0.02 l -0.02,0.04 201.01,141.08 c 7.03,4.93 16.73,3.23 21.67,-3.8 4.93,-7.02 3.23,-16.72 -3.8,-21.66 l -206.91,-145.13 c -0.05,-0.04 -0.11,-0.1 -0.17,-0.13 15.73,-34.15 37.11,-65.65 64.27,-90.15 0.07,0.04 0.13,0.06 0.2,0.1 v 0 l 265.04,186.02 c 7.04,4.94 16.73,3.23 21.66,-3.8 4.94,-7.03 3.24,-16.73 -3.79,-21.66 l -257.43,-180.67 c -0.06,-0.08 -0.1,-0.16 -0.17,-0.24 27.56,-19.73 57.83,-35.65 89.78,-46.97 39.38,-14.19 81.1,-22.14 123.59,-25.89 42.51,-3.76 85.73,-4.24 129.43,-4.43 43.7,-0.28 88,-0.1 132.76,-4.59 44.58,-4.63 90.1,-14.11 132,-34.19 10.42,-5.06 20.59,-10.64 30.4,-16.84 9.71,-6.34 19.12,-13.14 28,-20.56 17.69,-14.85 33.7,-31.7 47.59,-49.95 27.55,-36.56 47.94,-77.609 61.41,-120.769 13.41,-43.153 19.85,-88.602 17.63,-133.84 z M 1514.67,2022.24 c -457.22,0 -827.869,-370.65 -827.869,-827.88 0,-457.219 370.649,-827.872 827.869,-827.872 457.23,0 827.88,370.653 827.88,827.872 0,457.23 -370.65,827.88 -827.88,827.88"
         style="fill:#100f0d;fill-opacity:1;fill-rule:nonzero;stroke:none"
         id="path60" />
    </g>
  </g>
</svg>
